# xmcd CD database file
#
# Track frame offsets:
#	150
#	20897
#	37692
#	52155
#	69810
#	90377
#	107635
#	126280
#	144750
#	156302
#	176350
#
# Disc length: 2593 seconds
#
# Revision: 2
# Processed by: cddbd v1.5PL3 Copyright (c) Steve Scherf et al.
# Submitted via: CDex 1.51
#
DISCID=870a1f0b
DTITLE=Stephen Bruton - What It Is
DYEAR=1993
DGENRE=Blues
TTITLE0=This Train is Gone
TTITLE1=It is What It Is
TTITLE2=The Face of Love
TTITLE3=Too Many Memories
TTITLE4=Who's Fooling Who¿
TTITLE5=To Find My Love
TTITLE6=Waiting for a Long Time
TTITLE7=Big Top Hat
TTITLE8=Trouble on the Telephone
TTITLE9=River Runs Deep
TTITLE10=Getting Over You
EXTD=YEAR: 1993
EXTT0=
EXTT1=
EXTT2=
EXTT3=
EXTT4=
EXTT5=
EXTT6=
EXTT7=
EXTT8=
EXTT9=
EXTT10=
PLAYORDER=
